Hanif_Shallow_2_5_grf.mot
version=1
nRows=32
nColumns=19
inDegrees=yes
endheader
time	right_ground_force_vx	right_ground_force_vy	right_ground_force_vz	right_ground_force_px	right_ground_force_py	right_ground_force_pz	right_ground_torque_x	right_ground_torque_y	right_ground_torque_z	left_ground_force_vx	left_ground_force_vy	left_ground_force_vz	left_ground_force_px	left_ground_force_py	left_ground_force_pz	left_ground_torque_x	left_ground_torque_y	left_ground_torque_z
4.200000	4.565650	256.868000	60.695600	0.202615	0.000000	-1.454020	-13.334400	1.095450	0.912077	-1.700320	290.268000	-63.439800	0.211677	0.000000	-0.957158	15.736800	-1.980170	4.004330
4.205000	4.477870	257.661000	60.619300	0.203464	0.000000	-1.454030	-13.371500	1.116430	1.149970	-1.951250	290.726000	-62.947000	0.211507	0.000000	-0.958628	16.191300	-1.980870	3.954570
4.210000	4.285060	256.542000	60.350200	0.203576	0.000000	-1.453710	-13.396200	1.077670	1.169040	-1.670060	289.419000	-63.145800	0.212256	0.000000	-0.957903	15.906500	-2.017300	4.176060
4.215000	4.072680	257.010000	60.185600	0.203752	0.000000	-1.454670	-13.175200	1.078650	1.220790	-1.676530	288.434000	-62.720000	0.212240	0.000000	-0.958035	15.890500	-1.996880	4.151710
4.220000	3.976450	256.778000	60.015100	0.203537	0.000000	-1.454360	-13.244000	1.039740	1.152900	-1.940020	286.841000	-62.680500	0.212363	0.000000	-0.958486	15.935400	-2.018710	4.180160
4.225000	3.649090	255.445000	59.790200	0.204034	0.000000	-1.453340	-13.438100	0.994097	1.274550	-2.145570	287.837000	-62.430900	0.211689	0.000000	-0.957567	15.728200	-2.057490	3.994320
4.230000	3.480620	255.157000	59.423900	0.203761	0.000000	-1.453760	-13.316200	1.002820	1.202970	-1.768220	286.338000	-62.205100	0.212464	0.000000	-0.957664	15.669900	-1.989110	4.190500
4.235000	3.043880	253.814000	59.111100	0.204885	0.000000	-1.452720	-13.511000	0.922550	1.484160	-1.978720	286.747000	-61.801300	0.212497	0.000000	-0.958254	15.863900	-2.006510	4.206080
4.240000	2.749280	254.248000	58.968800	0.205815	0.000000	-1.453360	-13.371900	0.904226	1.734220	-2.391930	285.442000	-61.278500	0.212505	0.000000	-0.957999	15.723100	-1.988490	4.188990
4.245000	2.612350	254.362000	58.625600	0.205204	0.000000	-1.453380	-13.372500	0.945988	1.580360	-2.285270	282.821000	-60.840500	0.213143	0.000000	-0.957552	15.451600	-1.929470	4.330890
4.250000	2.624910	254.701000	58.633800	0.205556	0.000000	-1.453300	-13.410500	0.950647	1.677120	-2.403400	282.321000	-60.659700	0.213637	0.000000	-0.958579	15.715700	-1.933780	4.471880
4.255000	2.479390	254.356000	58.230900	0.206856	0.000000	-1.452590	-13.575000	0.802399	1.988620	-2.849190	281.223000	-60.224400	0.213183	0.000000	-0.958347	15.594400	-1.961910	4.331280
4.260000	2.437000	253.540000	58.423300	0.207110	0.000000	-1.452860	-13.461700	0.873536	2.069870	-2.340680	280.375000	-60.265800	0.213476	0.000000	-0.957945	15.429400	-1.943090	4.398280
4.265000	2.079280	254.338000	58.394800	0.206711	0.000000	-1.452230	-13.667900	0.715745	1.935520	-2.297440	277.761000	-59.559400	0.213618	0.000000	-0.958708	15.497500	-1.946130	4.401230
4.270000	1.545900	254.386000	58.221500	0.207801	0.000000	-1.451780	-13.784600	0.779088	2.247560	-2.658370	277.275000	-58.982800	0.213657	0.000000	-0.958665	15.461900	-1.907080	4.395250
4.275000	1.861600	253.459000	57.652200	0.208032	0.000000	-1.451950	-13.691600	0.661569	2.268770	-2.415900	274.913000	-58.304300	0.213454	0.000000	-0.958569	15.301300	-1.894900	4.295530
4.280000	1.270470	253.039000	57.566300	0.208800	0.000000	-1.451130	-13.879400	0.537709	2.448360	-2.789800	274.743000	-57.759000	0.213649	0.000000	-0.957645	15.042900	-1.956410	4.359170
4.285000	0.375605	252.983000	57.145600	0.209937	0.000000	-1.451130	-13.879800	0.533835	2.758180	-3.535360	272.493000	-56.944300	0.213975	0.000000	-0.958530	15.169000	-1.889490	4.410290
4.290000	-0.196589	250.938000	56.788400	0.210720	0.000000	-1.449720	-14.123900	0.415820	2.924320	-4.036220	271.444000	-55.956600	0.214219	0.000000	-0.958398	15.080200	-1.859240	4.453120
4.295000	-0.750194	251.301000	55.640900	0.210658	0.000000	-1.449420	-14.220500	0.316849	2.889350	-4.119690	269.945000	-55.489500	0.214661	0.000000	-0.957976	14.884700	-1.855290	4.552700
4.300000	-1.819820	251.838000	55.561400	0.212569	0.000000	-1.449040	-14.353200	0.250268	3.397410	-4.833060	267.312000	-54.561200	0.215060	0.000000	-0.959334	15.111800	-1.848780	4.626310
4.305000	-2.438990	253.007000	54.624600	0.212885	0.000000	-1.449390	-14.332200	0.199998	3.484990	-5.316250	266.159000	-53.618500	0.215335	0.000000	-0.958999	14.961800	-1.740130	4.657820
4.310000	-3.096620	248.104000	53.799400	0.214279	0.000000	-1.447130	-14.619200	0.111555	3.772940	-5.300000	264.252000	-51.960300	0.215590	0.000000	-0.958965	14.846400	-1.766330	4.684740
4.315000	-3.513490	248.579000	52.942100	0.215307	0.000000	-1.447610	-14.526800	-0.062660	4.007970	-6.559740	258.984000	-51.178400	0.216588	0.000000	-0.960854	15.059000	-1.760400	4.886760
4.320000	-4.188880	246.155000	52.271600	0.216756	0.000000	-1.446580	-14.642700	-0.157148	4.330040	-6.584340	257.142000	-50.050600	0.216043	0.000000	-0.960481	14.853100	-1.641760	4.674910
4.325000	-4.024620	246.536000	51.804600	0.217325	0.000000	-1.446420	-14.703700	-0.212793	4.465530	-6.820480	254.482000	-48.732300	0.216488	0.000000	-0.960447	14.697300	-1.718120	4.753680
4.330000	-3.711430	242.611000	51.068800	0.218451	0.000000	-1.445210	-14.761800	-0.291493	4.660990	-6.984840	250.950000	-47.800900	0.217568	0.000000	-0.960723	14.565400	-1.628560	4.955560
4.335000	-4.095800	242.508000	49.680800	0.219220	0.000000	-1.446440	-14.457000	-0.396419	4.825320	-7.426700	248.985000	-46.802200	0.217348	0.000000	-0.959990	14.275200	-1.630530	4.858100
4.340000	-3.978420	238.806000	49.011900	0.220882	0.000000	-1.444580	-14.678100	-0.562058	5.131610	-7.372750	246.276000	-45.921700	0.217264	0.000000	-0.959180	13.919900	-1.602850	4.775710
4.345000	-4.731810	235.861000	47.963600	0.221414	0.000000	-1.444020	-14.633400	-0.566986	5.204000	-7.597050	242.098000	-45.037700	0.218560	0.000000	-0.961484	14.248000	-1.558320	5.021390
4.350000	-5.882560	230.755000	46.206000	0.222067	0.000000	-1.443040	-14.548800	-0.598666	5.250620	-8.075550	238.025000	-43.705700	0.218522	0.000000	-0.960263	13.724100	-1.497690	4.917210
4.355000	-7.035520	227.451000	44.666100	0.223313	0.000000	-1.442270	-14.519900	-0.724826	5.452720	-8.115960	233.089000	-42.187600	0.218470	0.000000	-0.961664	13.771200	-1.539690	4.810940
